# Blender 3.5.1
# www.blender.org
o Cube
v 1.000000 -0.500000 4.000000
v -1.000000 -0.500000 3.000000
v -1.000000 0.872734 4.000000
v 1.000000 -0.500000 5.100000
v -1.000000 -0.500000 4.100000
v -1.000000 0.872734 5.100000
v 1.000000 -0.500000 6.200000
v -1.000000 -0.500000 5.200000
v -1.000000 0.872734 6.200000
v 1.000000 -0.500000 7.300000
v -1.000000 -0.500000 6.300000
v -1.000000 0.872734 7.300000
v 1.000000 -0.500000 8.400000
v -1.000000 -0.500000 7.400000
v -1.000000 0.872734 8.400000
v 1.000000 -0.500000 9.500000
v -1.000000 -0.500000 8.500000
v -1.000000 0.872733 9.500000
v 1.000000 -0.500000 10.600000
v -1.000000 -0.500000 9.600000
v -1.000000 0.872733 10.600000
v 1.000000 -0.500001 11.700000
v -1.000000 -0.500001 10.700000
v -1.000000 0.872733 11.700000
v 1.000000 -0.500001 12.800000
v -1.000000 -0.500001 11.800000
v -1.000000 0.872733 12.800000
v 1.000000 -0.500001 13.900001
v -1.000000 -0.500001 12.900001
v -1.000000 0.872733 13.900001
v 1.000000 -0.500001 15.000001
v -1.000000 -0.500001 14.000001
v -1.000000 0.872733 15.000001
v 1.000000 -0.500001 16.100002
v -1.000000 -0.500001 15.100001
v -1.000000 0.872733 16.100002
v 1.000000 -0.500001 17.200001
v -1.000000 -0.500001 16.200001
v -1.000000 0.872733 17.200001
v 1.000000 -0.500001 18.300003
v -1.000000 -0.500001 17.300003
v -1.000000 0.872733 18.300003
v 1.000000 -0.500001 19.400002
v -1.000000 -0.500001 18.400002
v -1.000000 0.872733 19.400002
v 1.000000 -0.500001 20.500002
v -1.000000 -0.500001 19.500002
v -1.000000 0.872733 20.500002
v 1.000000 -0.500001 21.600002
v -1.000000 -0.500001 20.600002
v -1.000000 0.872733 21.600002
v 1.000000 -0.500001 22.700003
v -1.000000 -0.500001 21.700003
v -1.000000 0.872733 22.700003
v 1.000000 -0.500001 23.800003
v -1.000000 -0.500001 22.800003
v -1.000000 0.872732 23.800003
v 1.000000 -0.500001 24.900003
v -1.000000 -0.500002 23.900003
v -1.000000 0.872732 24.900003
v 1.000000 -0.500002 26.000004
v -1.000000 -0.500002 25.000004
v -1.000000 0.872732 26.000004
v 1.000000 -0.500002 27.100004
v -1.000000 -0.500002 26.100004
v -1.000000 0.872732 27.100004
v 1.000000 -0.500002 28.200005
v -1.000000 -0.500002 27.200005
v -1.000000 0.872732 28.200005
v 1.000000 -0.500002 29.300005
v -1.000000 -0.500002 28.300005
v -1.000000 0.872732 29.300005
v 1.000000 -0.500002 30.400005
v -1.000000 -0.500002 29.400005
v -1.000000 0.872732 30.400005
v 1.000000 -0.500002 31.500006
v -1.000000 -0.500002 30.500006
v -1.000000 0.872732 31.500006
v 1.000000 -0.500002 32.600006
v -1.000000 -0.500002 31.600006
v -1.000000 0.872732 32.600006
v 1.000000 -0.500002 33.700005
v -1.000000 -0.500002 32.700005
v -1.000000 0.872732 33.700005
v 1.000000 -0.500002 34.800007
v -1.000000 -0.500002 33.800007
v -1.000000 0.872732 34.800007
v 1.000000 -0.500002 35.900005
v -1.000000 -0.500002 34.900009
v -1.000000 0.872731 35.900009
v 1.000000 -0.500002 37.000008
v -1.000000 -0.500002 36.000008
v -1.000000 0.872731 37.000008
v 1.000000 -0.500003 38.100006
v -1.000000 -0.500003 37.100006
v -1.000000 0.872731 38.100006
v 1.000000 -0.500003 39.200005
v -1.000000 -0.500003 38.200005
v -1.000000 0.872731 39.200005
v 1.000000 -0.500003 40.300003
v -1.000000 -0.500003 39.300003
v -1.000000 0.872731 40.300003
v 1.000000 -0.500003 41.400002
v -1.000000 -0.500003 40.400002
v -1.000000 0.872731 41.400002
v 1.000000 -0.500003 42.500000
v -1.000000 -0.500003 41.500000
v -1.000000 0.872731 42.500000
v 1.000000 -0.500003 43.599998
v -1.000000 -0.500003 42.599998
v -1.000000 0.872731 43.599998
v 1.000000 -0.500003 44.699997
v -1.000000 -0.500003 43.699997
v -1.000000 0.872731 44.699997
v 1.000000 -0.500003 45.799995
v -1.000000 -0.500003 44.799995
v -1.000000 0.872731 45.799995
v 1.000000 -0.500003 46.899994
v -1.000000 -0.500003 45.899994
v -1.000000 0.872731 46.899994
v 1.000000 -0.500003 47.999992
v -1.000000 -0.500003 46.999992
v -1.000000 0.872731 47.999992
v 1.000000 -0.500003 49.099991
v -1.000000 -0.500003 48.099991
v -1.000000 0.872730 49.099991
v 1.000000 -0.500003 50.199989
v -1.000000 -0.500003 49.199989
v -1.000000 0.872730 50.199989
v 1.000000 -0.500004 51.299988
v -1.000000 -0.500004 50.299988
v -1.000000 0.872730 51.299988
v 1.000000 -0.500004 52.399986
v -1.000000 -0.500004 51.399986
v -1.000000 0.872730 52.399986
v 1.000000 -0.500004 53.499985
v -1.000000 -0.500004 52.499985
v -1.000000 0.872730 53.499985
v 1.000000 -0.500004 54.599983
v -1.000000 -0.500004 53.599983
v -1.000000 0.872730 54.599983
v 1.000000 -0.500004 55.699982
v -1.000000 -0.500004 54.699982
v -1.000000 0.872730 55.699982
v 1.000000 -0.500004 56.799980
v -1.000000 -0.500004 55.799980
v -1.000000 0.872730 56.799980
v 1.000000 -0.500004 57.899979
v -1.000000 -0.500004 56.899979
v -1.000000 0.872730 57.899979
vn -0.3747 -0.5459 0.7494
s 0
f 2//1 1//1 3//1
f 5//1 4//1 6//1
f 8//1 7//1 9//1
f 11//1 10//1 12//1
f 14//1 13//1 15//1
f 17//1 16//1 18//1
f 20//1 19//1 21//1
f 23//1 22//1 24//1
f 26//1 25//1 27//1
f 29//1 28//1 30//1
f 32//1 31//1 33//1
f 35//1 34//1 36//1
f 38//1 37//1 39//1
f 41//1 40//1 42//1
f 44//1 43//1 45//1
f 47//1 46//1 48//1
f 50//1 49//1 51//1
f 53//1 52//1 54//1
f 56//1 55//1 57//1
f 59//1 58//1 60//1
f 62//1 61//1 63//1
f 65//1 64//1 66//1
f 68//1 67//1 69//1
f 71//1 70//1 72//1
f 74//1 73//1 75//1
f 77//1 76//1 78//1
f 80//1 79//1 81//1
f 83//1 82//1 84//1
f 86//1 85//1 87//1
f 89//1 88//1 90//1
f 92//1 91//1 93//1
f 95//1 94//1 96//1
f 98//1 97//1 99//1
f 101//1 100//1 102//1
f 104//1 103//1 105//1
f 107//1 106//1 108//1
f 110//1 109//1 111//1
f 113//1 112//1 114//1
f 116//1 115//1 117//1
f 119//1 118//1 120//1
f 122//1 121//1 123//1
f 125//1 124//1 126//1
f 128//1 127//1 129//1
f 131//1 130//1 132//1
f 134//1 133//1 135//1
f 137//1 136//1 138//1
f 140//1 139//1 141//1
f 143//1 142//1 144//1
f 146//1 145//1 147//1
f 149//1 148//1 150//1
